<?xml version="1.0" encoding="UTF-8"?>
<svg id="Layer_1" data-name="Layer 1" xmlns="http://www.w3.org/2000/svg" viewBox="0 0 1080 250">
  <defs>
    <style>
      .cls-1 {
        fill: #fff;
      }

      .cls-2 {
        fill: #d9ecc7;
      }

      .cls-3 {
        fill: #357c8c;
      }

      .cls-4 {
        fill: #0c1e21;
      }
    </style>
  </defs>
  <path class="cls-1" d="m189.01,230.11h-8.72l-8.22-7.36-8.46-1.49h38.37l-2.74-6.19-8.3-18.71-15.62-13.18c10.78-8,19.92-18.08,26.78-29.63,9.14-15.39,13.97-33.02,13.97-50.99,0-13.57-2.68-26.74-7.96-39.15-5.1-11.98-12.41-22.73-21.71-31.96-9.3-9.23-20.14-16.48-32.21-21.55-12.49-5.25-25.76-7.9-39.44-7.9s-26.95,2.66-39.44,7.9c-12.07,5.07-22.9,12.32-32.21,21.55-9.3,9.23-16.61,19.99-21.71,31.96-5.28,12.4-7.96,25.57-7.96,39.15,0,21.53,6.76,42.06,19.54,59.37,6.15,8.33,13.52,15.65,21.91,21.76,5.86,4.27,12.13,7.88,18.73,10.79l-13.37,2.35-12.37,11.06h-13.11L2,230.19h123.88l-7.9,17.81h97.3l-26.27-17.89Z"/>
  <path class="cls-2" d="m135.63,42.98s0,0,0,0v27.32c.19.05.69.19.77.21,0,0,.01.12.03.32l73.4,13.27c-3.34-17.02-11.2-32.44-22.29-44.97l-51.9,3.85Z"/>
  <path class="cls-2" d="m93.08,70.51c.07-.02.58-.16.77-.21v-27.32s0,0,0,0l-51.9-3.85c-11.09,12.53-18.95,27.95-22.29,44.98l73.4-13.28c.02-.2.03-.31.03-.32Z"/>
  <g>
    <path class="cls-3" d="m135.63,70.29c.17.04.58.16.71.2-.14-.04-.55-.15-.71-.2h0Z"/>
    <path class="cls-3" d="m145.23,189l17.96-3.16c28.95-16.63,48.43-47.7,48.43-83.28,0-6.32-.62-12.49-1.79-18.46h0s-73.4-13.27-73.4-13.27c.14,1.56,8.8,118.17,8.8,118.17Z"/>
    <path class="cls-3" d="m93.84,42.98h0c-2.9-1.03-4.33-2.27-3.6-3.59-.01-.49-.03-1.1-.05-1.59-.67-1.38,1.02-2.68,4.28-3.71,2.38-7.23,10.55-12.56,20.26-12.56s17.89,5.33,20.26,12.56c3.26,1.03,4.94,2.32,4.28,3.71-.01.49-.03,1.1-.05,1.59.73,1.32-.7,2.57-3.6,3.58h0s0,0,0,0l51.9-3.85h0C169.78,19.07,143.75,6.41,114.74,6.41s-55.04,12.66-72.8,32.72l51.9,3.85s0,0,0,0Z"/>
    <path class="cls-3" d="m136.4,70.51h0s.01.11.03.29c-.02-.17-.03-.28-.03-.29Z"/>
    <path class="cls-3" d="m84.06,193.79l8.98-122.97-73.4,13.28c-1.17,5.98-1.79,12.15-1.79,18.46,0,42.46,27.74,78.5,66.21,91.23Z"/>
    <path class="cls-4" d="m195.16,216.86l-7.89-17.79-17.12-14.45-6.96,1.22h0s-17.96,3.16-17.96,3.16c0,0-.72-9.75-1.76-23.65-20.82,4.85-40.55,11.69-58.81,20.24l-.6,8.2c-.07,1.15-.14,2.28-.21,3.37l-21.6,3.79-12.69,11.35h-13.44l-19.79,13.47h113.13l-3.96-8.92h69.67Z"/>
    <path class="cls-4" d="m138.94,104.46c-17.4,4.33-34,10.06-49.59,17.01l-2.34,32.04c16.94-7.74,35.1-14.03,54.2-18.63-.77-10.37-1.56-20.94-2.27-30.43Z"/>
    <path class="cls-4" d="m93.08,70.51s-.01.12-.03.32l-1.86,25.41c14.51-6.36,29.89-11.65,45.96-15.75-.43-5.79-.7-9.4-.73-9.66h0c-.02-.19-.03-.31-.03-.32-.07-.02-.58-.16-.77-.21v-27.33c2.9-1.02,4.33-2.26,3.6-3.58.01-.49.03-1.1.05-1.59.67-1.38-1.02-2.68-4.28-3.71-2.38-7.23-10.55-12.56-20.26-12.56s-17.89,5.33-20.26,12.56c-3.26,1.03-4.94,2.32-4.28,3.71.01.49.03,1.1.05,1.59-.73,1.32.7,2.57,3.6,3.58v27.33c-.19.05-.69.19-.77.21Z"/>
  </g>
  <path class="cls-1" d="m127.94,40.5c-2.68-1.03-5.93-1.54-9.75-1.54h-6.9c-3.81,0-7.07.51-9.77,1.54-2.69,1.03-4.03,2.27-4.03,3.72v25.33c3.67-.59,8.46-.99,13.8-1.11v-11.71h6.9v11.71c5.34.12,10.13.52,13.8,1.11v-25.33c0-1.45-1.35-2.69-4.05-3.72Zm-9.75,9.49c0,1.18-.96,2.13-2.15,2.13h-2.61c-1.19,0-2.15-.95-2.15-2.13v-3.64c0-1.18.96-2.13,2.15-2.13h2.61c1.19,0,2.15.95,2.15,2.13v3.64Z"/>
  <polygon class="cls-4" points="124.79 243.59 200.95 243.59 187.63 234.52 178.58 234.52 170.04 226.88 141.63 221.89 130.11 231.62 124.79 243.59"/>
  <path class="cls-4" d="m396.85,20.95v21.7h-45.6v146.97h-22.8V42.65h-44.42v-21.7h112.82Z"/>
  <path class="cls-4" d="m440.92,101.9c4.62-4.04,9.52-7.15,14.69-9.33,5.17-2.18,9.71-3.34,13.63-3.5l-.94,21.7c-7.05-.31-13.44,1.09-19.16,4.2-5.72,3.11-10.19,7.43-13.4,12.95-3.21,5.52-4.82,11.39-4.82,17.61v44.09h-21.86v-96.58h19.51l1.65,22.86c2.5-5.29,6.07-9.95,10.69-14Z"/>
  <path class="cls-4" d="m583.24,93.04v96.58h-19.74l-1.41-18.43c-3.29,6.53-8.38,11.86-15.28,15.98-6.9,4.12-14.57,6.18-23.03,6.18-8.93,0-16.26-2.68-21.98-8.05-5.72-5.37-8.74-12.32-9.05-20.88v-71.39h21.86v63.69c.31,5.45,1.92,9.76,4.82,12.95,2.9,3.19,7.25,4.86,13.05,5.02,5.33,0,10.18-1.59,14.57-4.78,4.38-3.19,7.87-7.58,10.46-13.18s3.88-11.82,3.88-18.66v-45.02h21.86Z"/>
  <path class="cls-4" d="m623.55,187.99c-6.5-2.49-11.79-6.14-15.87-10.96l9.4-12.6c3.91,3.73,8.03,6.61,12.34,8.63,4.31,2.02,8.58,3.03,12.81,3.03,5.17,0,9.4-1.01,12.69-3.03,3.29-2.02,4.94-5.13,4.94-9.33,0-3.27-1.02-5.91-3.06-7.93-2.04-2.02-4.35-3.5-6.93-4.43-2.59-.93-6.93-2.33-13.05-4.2-16.61-5.29-24.91-14.7-24.91-28.23,0-8.08,3.02-15.01,9.05-20.76,6.03-5.75,14.46-8.63,25.27-8.63,6.89,0,13,.86,18.33,2.57,5.33,1.71,10.26,4.43,14.81,8.16l-8.7,13.3c-2.51-2.64-5.68-4.74-9.52-6.3-3.84-1.55-7.48-2.41-10.93-2.57-4.39,0-8.15,1.05-11.28,3.15-3.14,2.1-4.7,4.94-4.7,8.51,0,2.96,1.02,5.41,3.06,7.35,2.03,1.95,4.15,3.35,6.35,4.2,2.19.86,6.5,2.3,12.93,4.32,7.99,2.65,14.22,6.07,18.69,10.26,4.47,4.2,6.7,9.88,6.7,17.03,0,9.33-3.29,17.03-9.87,23.1-6.58,6.07-15.91,9.1-27.97,9.1-7.21,0-14.07-1.25-20.57-3.73Z"/>
  <path class="cls-4" d="m734.6,50.58v42.69h26.56v17.26h-26.56v79.08h-22.09v-79.08h-17.86v-17.26h17.86v-42.69h22.09Z"/>
  <path class="cls-4" d="m870.93,93.04l-62.76,143h-21.62l22.33-49.69-45.13-93.31h24.68l31.5,68.82,30.79-68.82h20.21Z"/>
  <path class="cls-4" d="m984.22,145.3h-65.34l-18.1,44.32h-22.56L952.49,13.96h1.41l74.27,175.66h-26.33l-17.63-44.32Zm-7.76-19.6l-24.21-61.59-25.15,61.59h49.36Z"/>
  <path class="cls-4" d="m1078,20.95v168.67h-22.8V20.95h22.8Z"/>
</svg>